<svg width="14" height="25" viewBox="0 0 14 25" fill="none" xmlns="http://www.w3.org/2000/svg">
<path d="M7.20391 19.0261C13.2712 19.9133 14 12.6477 14 12.6477C14 12.6477 7.943 13.1825 7.19802 17.2477V13.2861C7.19949 13.2972 7.20097 13.3082 7.20244 13.3179C13.2697 14.205 13.9985 6.93947 13.9985 6.93947C13.9985 6.93947 7.94152 7.47423 7.19654 11.5395V9.69065C11.8225 6.27897 6.99926 0.811157 6.99926 0.811157C6.99926 0.811157 2.1834 6.26929 6.78873 9.68236V11.4746C5.99075 7.47008 0 6.94085 0 6.94085C0 6.94085 0.728782 14.2009 6.78873 13.3207V17.1828C5.99075 13.1783 0 12.6491 0 12.6491C0 12.6491 0.728782 19.9091 6.78873 19.0289V22.891C5.99075 18.8866 0 18.3573 0 18.3573C0 18.3573 0.728782 25.6173 6.78873 24.7371V17.1692H7.19654V24.704C7.19802 24.715 7.19949 24.7261 7.20097 24.7358C13.2683 25.6229 13.9971 18.3573 13.9971 18.3573C13.9971 18.3573 7.94006 18.8921 7.19508 22.9574V18.9957C7.19655 19.0068 7.19802 19.0178 7.19949 19.0275L7.20391 19.0261Z" fill="#067302"/>
</svg>
