<svg width="26" height="27" viewBox="0 0 26 27" fill="none" xmlns="http://www.w3.org/2000/svg">
<path d="M17.0649 13.3244C17.0649 14.3916 16.641 15.4151 15.8863 16.1698C15.1317 16.9244 14.1082 17.3484 13.0409 17.3484C11.9737 17.3484 10.9502 16.9244 10.1955 16.1698C9.44086 15.4151 9.01691 14.3916 9.01691 13.3244C9.01691 13.095 9.04105 12.871 9.08263 12.6537H7.67557V18.015C7.67557 18.3879 7.97737 18.6897 8.35026 18.6897H17.7329C17.9116 18.6894 18.0829 18.6181 18.2091 18.4916C18.3354 18.3652 18.4063 18.1937 18.4063 18.015V12.6537H16.9992C17.0408 12.871 17.0649 13.095 17.0649 13.3244ZM13.0409 16.0071C13.3933 16.007 13.7422 15.9375 14.0677 15.8025C14.3933 15.6676 14.689 15.4699 14.9381 15.2206C15.1873 14.9714 15.3848 14.6756 15.5196 14.35C15.6544 14.0244 15.7237 13.6754 15.7236 13.323C15.7235 12.9707 15.654 12.6217 15.5191 12.2962C15.3842 11.9707 15.1864 11.6749 14.9372 11.4258C14.688 11.1767 14.3921 10.9791 14.0665 10.8444C13.7409 10.7096 13.392 10.6403 13.0396 10.6404C12.3279 10.6405 11.6455 10.9234 11.1424 11.4268C10.6393 11.9301 10.3567 12.6127 10.3569 13.3244C10.3571 14.036 10.64 14.7185 11.1433 15.2216C11.6467 15.7247 12.3293 16.0072 13.0409 16.0071ZM16.2601 10.5076H17.8684C17.9753 10.5076 18.0777 10.4652 18.1534 10.3898C18.2291 10.3144 18.2718 10.212 18.2722 10.1052V8.49689C18.2722 8.38981 18.2296 8.28712 18.1539 8.2114C18.0782 8.13568 17.9755 8.09315 17.8684 8.09315H16.2601C16.1531 8.09315 16.0504 8.13568 15.9747 8.2114C15.8989 8.28712 15.8564 8.38981 15.8564 8.49689V10.1052C15.8577 10.3265 16.0388 10.5076 16.2601 10.5076ZM13.0409 0.44751C9.62577 0.44751 6.35049 1.80418 3.93561 4.21906C1.52073 6.63394 0.164063 9.90922 0.164062 13.3244C0.164063 16.7395 1.52073 20.0148 3.93561 22.4297C6.35049 24.8446 9.62577 26.2012 13.0409 26.2012C14.7319 26.2012 16.4064 25.8682 17.9687 25.221C19.531 24.5739 20.9505 23.6254 22.1462 22.4297C23.342 21.234 24.2905 19.8144 24.9376 18.2521C25.5847 16.6898 25.9178 15.0154 25.9178 13.3244C25.9178 11.6334 25.5847 9.95891 24.9376 8.39661C24.2905 6.83432 23.342 5.41478 22.1462 4.21906C20.9505 3.02333 19.531 2.07483 17.9687 1.4277C16.4064 0.78058 14.7319 0.44751 13.0409 0.44751ZM19.7476 18.5408C19.7476 19.3604 19.077 20.0311 18.2574 20.0311H7.82446C7.0049 20.0311 6.33423 19.3604 6.33423 18.5408V8.1079C6.33423 7.28834 7.0049 6.61767 7.82446 6.61767H18.2574C19.077 6.61767 19.7476 7.28834 19.7476 8.1079V18.5408Z" fill="#474747"/>
</svg>
