<svg width="110" height="60" viewBox="0 0 110 60" fill="none" xmlns="http://www.w3.org/2000/svg">
<g clip-path="url(#clip0_200_4748)">
<path d="M2.85964 24.1083C1.714 21.1906 2.19831 17.909 4.81465 15.9882C8.2272 13.4831 13.4691 14.2971 17.1554 15.7513C21.2589 17.3701 25.8519 21.6091 30.2574 21.9473C33.1041 22.1658 37.1451 20.68 39.3876 18.9612C39.4403 18.921 40.3944 18.211 40.9689 17.8044C40.9965 17.7846 40.0588 18.7704 39.8766 18.9414C39.6601 19.1448 39.3422 19.4416 39.1771 19.5949C36.8621 21.7499 33.139 23.626 29.96 23.8286C25.6677 24.1017 23.3126 22.1336 19.5197 20.8195C16.8869 19.9074 8.65953 17.2668 7.67511 21.2781C7.506 21.9684 7.86726 23.9537 8.65361 24.1057L108.726 24.103L109.379 28.3954H105.519V48.2574L100.085 47.6856V38.3975H93.7944C93.7371 42.476 90.3285 41.7218 88.007 39.8234C86.5659 38.6449 85.2748 36.0582 87.1469 34.6835C87.4904 34.4315 88.3209 34.1111 88.7183 34.1111H100.085V28.3954H82.1413C82.1261 28.3954 81.9268 28.5948 81.9268 28.6099V48.2574L76.4934 47.6856V28.3954H69.7736V48.0429C69.7736 48.1567 69.4307 48.3101 69.28 48.2647L64.3402 47.6862V38.8272H53.8314C53.7801 38.8272 53.613 39.0094 53.4754 38.9719L53.5505 39.3918L58.4798 47.3283L53.8222 48.5417L53.4899 48.3134L48.6764 39.9781C47.9842 39.3549 46.3305 40.0781 45.5455 38.8206C44.2867 36.8037 47.8631 32.4081 50.1563 33.0582C51.021 33.3036 51.5514 34.8217 51.6869 34.8237C53.584 33.2655 53.6643 30.2359 52.1159 28.396H31.3123V31.5395C32.3901 31.0861 33.4726 30.6116 34.6669 30.5347C44.6335 29.8911 46.6345 44.0921 36.3521 45.7931C36.1521 45.826 34.9051 45.9839 34.8321 45.9622C34.484 45.8582 33.8602 42.0055 33.6002 41.4001C36.1646 41.479 38.627 39.7866 37.6708 36.9735C36.9082 34.7309 33.9832 34.3473 32.2454 35.687C32.1091 35.7917 31.3123 36.5464 31.3123 36.6122V48.0436C31.3123 48.1574 30.9694 48.3107 30.8187 48.2653L25.8789 47.6869V44.6863C21.2128 47.4757 14.4081 44.7442 14.0054 39.0483C13.523 32.2284 20.0968 28.6106 25.8789 31.6829V28.3967H9.15042V48.2587L3.71705 47.6869V28.3967H0.643385C0.49138 28.3059 0.465717 28.1967 0.433473 28.0354C0.177499 26.772 0.118276 25.3954 0.000488281 24.1103H2.86029L2.85964 24.1083ZM64.3402 28.3954H57.7632C58.2922 30.5333 58.4015 32.6989 57.7632 34.8257H64.3402V28.3954ZM21.6951 35.0027C20.4107 35.2212 19.2617 36.6208 19.1604 37.8993C18.9465 40.592 21.7498 42.0732 24.12 41.1415C24.5293 40.9802 25.7328 40.1195 25.8493 39.726C25.9335 39.4418 25.9335 36.9248 25.8493 36.6412C25.7907 36.4451 25.2051 35.918 25.0083 35.7667C24.0134 35.0014 22.9415 34.7908 21.6951 35.0027Z" fill="#03942C"/>
<path d="M33.9274 17.2819C34.1873 17.5898 34.5051 17.8037 35.0993 18.084C35.3856 18.2189 35.8843 18.367 35.5362 18.5407C33.5312 19.5389 31.3722 18.4677 30.5457 17.199C29.4376 15.4993 29.4067 11.7327 29.3823 9.71781C31.6506 11.5846 35.5382 11.6182 36.4549 14.8656C36.7983 16.0836 36.5417 16.7627 36.0469 17.8682C36.0317 17.9024 36.0383 17.9498 36.0837 17.9656C36.1581 17.9919 36.3667 18.0472 36.3667 18.0472C36.5029 18.0821 36.5957 18.0886 36.701 18.0985C36.8536 18.1123 37.0491 18.1301 37.2195 18.1281C37.2603 18.1281 37.4557 18.1301 37.5472 18.1229C37.6492 18.1143 37.7235 18.1301 37.7235 18.1301C36.3825 15.5138 36.6365 13.0896 38.0782 10.6219C40.0319 7.27783 45.4363 4.58188 46.7465 1.54637L47.3953 0C47.6954 2.45841 48.3159 4.88983 48.5389 7.36074C48.8015 10.2706 48.8601 15.8474 46.8879 18.1617C44.9869 20.3924 42.3666 20.9794 39.4134 19.6844C42.1633 17.3714 44.1584 14.451 44.9639 11.1471C44.5526 12.0736 44.2137 12.829 43.9985 13.283C43.4504 14.4392 42.8575 15.4394 42.033 16.4126C40.8564 17.8024 39.4351 18.7954 38.7251 19.1369C38.4961 19.2468 38.1657 18.7309 37.8755 18.3518C37.7861 18.2347 37.5116 18.2867 37.1945 18.2874C35.8435 18.2913 34.4479 17.905 33.6411 16.639C33.2154 16.0007 32.6903 14.6228 32.098 14.2905C32.5771 14.9926 32.6745 15.1459 32.9568 15.7289C33.1792 16.1889 33.4549 16.7384 33.9274 17.2819Z" fill="#03942C"/>
<path d="M77.4943 50.4006L79.3519 50.473L83.6423 56.5447V50.4006H85.5012V59.7598C85.5012 60.0704 83.9522 60.025 83.643 59.902L79.3526 53.8296V59.7598C79.3526 60.0796 77.4937 60.0796 77.4937 59.7598V50.4006H77.4943Z" fill="#774108"/>
<path d="M87.7886 59.9743V50.4006H91.8638C93.4332 50.4006 94.8914 51.7943 95.327 53.2269C96.2094 56.1288 94.9855 59.9743 91.4347 59.9743H87.7886ZM89.6475 58.403C92.6534 58.6958 93.9339 57.4797 93.6569 54.4673C93.5674 53.4908 92.8627 51.9727 91.7203 51.9727H89.6469V58.403H89.6475Z" fill="#774108"/>
<path d="M105.78 50.425L109.379 59.6881C108.95 59.6197 107.864 60.0204 107.539 59.8118C107.399 59.7217 106.903 57.7278 106.71 57.6818C106.111 57.7989 103.441 57.485 103.156 57.8285C102.929 58.1022 102.609 59.7546 102.378 59.9085C102.076 60.1099 101.069 59.9006 100.656 59.9737L104.159 50.5428C104.39 50.2651 105.387 50.423 105.78 50.4243V50.425ZM103.802 56.2591H106.233C105.872 55.3181 105.586 54.3139 105.153 53.4026C105.083 53.2565 105.155 53.0282 104.876 53.1144C104.718 53.1637 103.882 55.8551 103.802 56.2591Z" fill="#774108"/>
<path d="M75.2071 50.4006V59.9743C74.8846 59.9388 73.3481 60.1099 73.3481 59.7598V50.4006H75.2071Z" fill="#774108"/>
<path d="M99.3702 50.4006V59.7598C99.3702 60.0796 97.5112 60.0796 97.5112 59.7598V50.4006H99.3702Z" fill="#774108"/>
</g>
<defs>
<clipPath id="clip0_200_4748">
<rect width="109.379" height="60" fill="white"/>
</clipPath>
</defs>
</svg>
