<svg width="234" height="48" viewBox="0 0 234 48" fill="none" xmlns="http://www.w3.org/2000/svg">
<path d="M93.8007 16.5834H121.306V21.3707H117.215V43.6537H111.383V32.1205H104.507V33.2521C104.507 34.4127 104.26 35.2541 103.767 35.7763C103.274 36.2696 102.563 36.5162 101.635 36.5162C100.967 36.5162 100.256 36.3276 99.502 35.9504C98.7476 35.5442 98.0367 35.022 97.3694 34.3837C96.7311 33.7453 96.1943 33.0635 95.7591 32.3381C95.3529 31.5838 95.1498 30.8729 95.1498 30.2056C95.1498 29.4512 95.3384 28.7839 95.7156 28.2036C96.1218 27.6233 96.9632 27.3332 98.2398 27.3332H111.383V21.3707H93.8007V16.5834Z" fill="#006935"/>
<path d="M90.3213 21.3707V43.6537H84.4894V21.3707H81.0077V16.5834H94.4558V21.3707H90.3213Z" fill="#006935"/>
<path d="M61.8956 21.3707L62.4179 19.6734C62.737 20.2247 62.9982 20.8775 63.2013 21.6319C63.4334 22.3572 63.5494 23.3582 63.5494 24.6348C63.5494 25.7374 63.4044 26.7094 63.1142 27.5508C62.8241 28.3922 62.4324 29.1466 61.9392 29.8139L61.3298 30.5102C60.7786 31.0615 60.1548 31.5548 59.4584 31.99C58.7911 32.4252 58.0802 32.8024 57.3259 33.1215L57.674 32.6863C58.7766 33.9339 60.0387 35.2541 61.4604 36.6468C62.9111 38.0104 64.4344 39.3306 66.0302 40.6072L62.3308 44.3936C60.7641 42.9429 59.2843 41.5502 57.8917 40.2155C56.499 38.8519 55.2659 37.5897 54.1923 36.4292C53.1188 35.2396 52.2339 34.1951 51.5375 33.2956C50.8992 32.4252 50.4785 31.6853 50.2754 31.076C50.0723 30.4667 49.9707 29.9154 49.9707 29.4222C49.9707 28.6678 50.2174 27.9425 50.7106 27.2461C51.2329 26.5208 52.1323 26.1581 53.4089 26.1581C54.1923 26.1581 54.8887 26.3032 55.498 26.5933C56.1363 26.8835 56.7166 27.3187 57.2388 27.899C57.7901 28.4792 58.3124 29.2191 58.8056 30.1186L55.7591 28.9435C56.2523 28.4502 56.6295 27.928 56.8907 27.3767C57.1808 26.8254 57.3839 26.2451 57.5 25.6358C57.645 24.9975 57.7176 24.3592 57.7176 23.7209C57.7176 22.8795 57.6015 22.0816 57.3694 21.3272C57.1663 20.5438 56.9197 19.9635 56.6295 19.5864L59.8501 21.3707H48.6216V16.5834H68.9896V21.3707H61.8956ZM77.5198 21.3707V43.6537H71.688V21.3707H67.684V16.5834H81.6108V21.3707H77.5198ZM66.2043 29.1611C67.1907 29.1611 68.0902 29.1176 68.9026 29.0305C69.744 28.9435 70.5709 28.7984 71.3833 28.5953C72.2247 28.3922 73.1242 28.1021 74.0816 27.7249V32.6428C72.9211 33.1651 71.7315 33.5132 70.5129 33.6873C69.3233 33.8614 68.0612 33.9484 66.7265 33.9484C65.5079 33.9484 64.4054 33.8759 63.4189 33.7308C62.4324 33.5858 61.5475 33.3972 60.7641 33.1651C59.9807 32.9039 59.2843 32.6428 58.675 32.3817L59.3279 28.1166C60.0532 28.3197 60.7641 28.5083 61.4604 28.6823C62.1858 28.8274 62.9401 28.9435 63.7235 29.0305C64.5069 29.1176 65.3338 29.1611 66.2043 29.1611Z" fill="#006935"/>
<path d="M49.2203 21.3707H35.2064V28.987L34.9453 27.5943C35.6706 27.1301 36.4395 26.7819 37.2519 26.5498C38.0933 26.3177 39.0073 26.2016 39.9938 26.2016C42.0538 26.2016 43.7366 26.8399 45.0423 28.1166C46.3769 29.3932 47.0442 31.1631 47.0442 33.4262C47.0442 34.7028 46.7976 36.1245 46.3044 37.6913C45.8401 39.2581 45.0713 40.8538 43.9977 42.4786L38.9057 39.6498C39.5731 38.7503 40.1243 37.8218 40.5595 36.8644C40.9948 35.9069 41.2124 34.9204 41.2124 33.9049C41.2124 32.8314 40.9802 32.077 40.516 31.6418C40.0808 31.2066 39.5005 30.989 38.7752 30.989C38.0498 30.989 37.339 31.2356 36.6426 31.7288C35.9753 32.1931 35.4095 32.6718 34.9453 33.1651L35.2064 32.3381V43.6537H29.3745V35.5152L30.9413 37.169C30.0999 37.7203 29.2875 38.199 28.5041 38.6052C27.7207 39.0114 26.8938 39.3161 26.0234 39.5192C25.182 39.7223 24.21 39.8238 23.1074 39.8238C21.5116 39.8238 20.0464 39.5337 18.7118 38.9534C17.4061 38.3441 16.3616 37.4592 15.5782 36.2986C14.7948 35.138 14.4031 33.6873 14.4031 31.9465C14.4031 30.3217 14.7948 28.929 15.5782 27.7684C16.3616 26.5788 17.4496 25.6649 18.8423 25.0265C20.235 24.3592 21.8453 24.0255 23.6732 24.0255C24.4856 24.0255 25.298 24.0546 26.1104 24.1126C26.9518 24.1706 27.6047 24.2722 28.0689 24.4172L27.6337 29.2481C27.1985 29.1321 26.7052 29.045 26.1539 28.987C25.6317 28.929 25.0949 28.9 24.5436 28.9C23.18 28.9 22.1209 29.1756 21.3666 29.7269C20.6122 30.2491 20.235 30.989 20.235 31.9465C20.235 33.107 20.5977 33.9049 21.3231 34.3401C22.0484 34.7753 22.8318 34.993 23.6732 34.993C25.211 34.993 26.5311 34.5722 27.6337 33.7308C28.7362 32.8894 29.6502 31.99 30.3755 31.0325L29.3745 34.8624V21.3707H12.7928V16.5834H49.2203V21.3707Z" fill="#006935"/>
<path d="M12.8824 4.65851C15.2905 4.65851 17.5391 4.99217 19.6282 5.6595C21.7172 6.29782 23.6612 7.19726 25.4601 8.35783C27.2589 9.48939 28.9273 10.795 30.465 12.2748C32.0028 13.7255 33.439 15.2632 34.7736 16.888H28.1149C26.6932 15.2923 25.2134 13.9576 23.6757 12.8841C22.1379 11.7815 20.5421 10.9401 18.8883 10.3598C17.2345 9.77953 15.5081 9.48939 13.7093 9.48939C11.8523 9.48939 10.4306 9.83756 9.44416 10.5339C8.45767 11.2012 7.96443 12.1297 7.96443 13.3193C7.96443 14.0156 8.06598 14.6684 8.26908 15.2777C8.50119 15.887 8.76232 16.4238 9.05246 16.888H3.4382C3.032 16.0756 2.69833 15.2923 2.4372 14.5379C2.20509 13.7545 2.08903 12.9711 2.08903 12.1877C2.08903 10.65 2.49523 9.32981 3.30763 8.22727C4.14905 7.09571 5.36765 6.22528 6.96343 5.61598C8.55922 4.97767 10.5322 4.65851 12.8824 4.65851ZM3.48172 21.3707H0V16.5834H13.4481V21.3707H9.31359V43.6537H3.48172V21.3707Z" fill="#006935"/>
<path d="M224.518 26.4571C224.518 26.6792 224.437 26.8812 224.276 27.063C224.114 27.2245 223.922 27.3053 223.7 27.3053C223.519 27.3053 223.327 27.2548 223.125 27.1538C222.923 27.0327 222.69 26.9014 222.428 26.76C222.186 26.6187 221.893 26.4975 221.549 26.3965C221.226 26.2753 220.853 26.2147 220.429 26.2147C219.439 26.2147 218.55 26.5278 217.763 27.1538C216.995 27.7597 216.339 28.5171 215.794 29.4259C215.269 30.3347 214.865 31.3041 214.582 32.334C214.299 33.364 214.158 34.293 214.158 35.1211C214.158 35.7067 214.208 36.2823 214.309 36.8478C214.41 37.3931 214.582 37.898 214.824 38.3625C215.087 38.8068 215.44 39.1703 215.885 39.453C216.329 39.7156 216.894 39.8468 217.581 39.8468C218.308 39.8468 219.005 39.7156 219.671 39.453C220.338 39.1703 220.964 38.8068 221.549 38.3625C221.57 37.7162 221.671 37.0396 221.852 36.3328C222.054 35.6057 222.307 34.8989 222.61 34.2122C222.913 33.5054 223.256 32.8389 223.64 32.2129C224.044 31.5868 224.458 31.0314 224.882 30.5467L225.276 30.7891C225.053 31.4757 224.892 32.1826 224.791 32.9096C224.69 33.6367 224.639 34.3536 224.639 35.0605C224.639 35.7875 224.7 36.4742 224.821 37.1204C224.942 37.7667 225.154 38.3322 225.457 38.8169C225.76 39.2814 226.174 39.655 226.699 39.9377C227.224 40.2003 227.901 40.3315 228.729 40.3315C229.739 40.3315 230.668 40.0993 231.516 39.6348C232.364 39.1703 233.111 38.5846 233.758 37.8778L234 37.9989C233.637 38.7058 233.162 39.3823 232.576 40.0286C231.991 40.6749 231.334 41.2605 230.607 41.7856C229.9 42.2905 229.143 42.6944 228.335 42.9974C227.527 43.3003 226.73 43.4518 225.942 43.4518C224.831 43.4518 223.922 43.1286 223.216 42.4824C222.509 41.8563 222.024 41.0586 221.761 40.0892C220.913 40.9374 219.964 41.6544 218.914 42.24C217.884 42.8055 216.793 43.0883 215.642 43.0883C214.794 43.0883 214.037 42.9267 213.37 42.6036C212.724 42.3006 212.179 41.8866 211.734 41.3615C211.29 40.8364 210.947 40.2205 210.704 39.5136C210.482 38.7866 210.371 38.0292 210.371 37.2416C210.371 36.3328 210.512 35.4038 210.795 34.4546C211.098 33.4852 211.502 32.536 212.007 31.607C212.532 30.678 213.148 29.7995 213.855 28.9715C214.562 28.1434 215.329 27.4164 216.157 26.7903C217.005 26.1643 217.894 25.6695 218.823 25.3059C219.752 24.9424 220.701 24.7607 221.671 24.7607C221.893 24.7607 222.165 24.7909 222.489 24.8515C222.812 24.8919 223.125 24.9727 223.428 25.0939C223.731 25.2151 223.983 25.3867 224.185 25.6089C224.407 25.831 224.518 26.1138 224.518 26.4571Z" fill="#F16325"/>
<path d="M203.252 17.884C203.252 18.2879 203.161 18.6918 202.979 19.0957C202.798 19.4996 202.555 19.8632 202.252 20.1863C201.97 20.4892 201.636 20.7417 201.253 20.9436C200.869 21.1456 200.475 21.2466 200.071 21.2466C199.546 21.2466 199.122 21.0749 198.799 20.7316C198.496 20.3883 198.344 19.9541 198.344 19.429C198.344 19.025 198.435 18.6312 198.617 18.2475C198.799 17.8436 199.031 17.4902 199.314 17.1872C199.617 16.8843 199.95 16.642 200.314 16.4602C200.697 16.2582 201.091 16.1573 201.495 16.1573C202.02 16.1573 202.444 16.3188 202.767 16.642C203.09 16.9651 203.252 17.3791 203.252 17.884ZM211.734 37.9989C211.27 38.7664 210.714 39.4732 210.068 40.1195C209.442 40.7455 208.745 41.3009 207.978 41.7856C207.231 42.2501 206.423 42.6136 205.554 42.8762C204.706 43.1387 203.828 43.27 202.919 43.27C201.788 43.27 200.778 43.0781 199.889 42.6944C199.021 42.3107 198.284 41.7856 197.678 41.1192C197.092 40.4325 196.638 39.6348 196.315 38.726C196.012 37.797 195.86 36.7872 195.86 35.6966C195.86 34.5253 196.032 33.4145 196.375 32.3643C196.719 31.3141 197.193 30.3346 197.799 29.4258C198.405 28.4968 199.112 27.6486 199.92 26.8812C200.748 26.1137 201.626 25.4271 202.555 24.8212L202.919 25.0939C201.929 26.2652 201.121 27.5779 200.495 29.032C199.889 30.4861 199.586 32.0008 199.586 33.5761C199.586 34.4849 199.687 35.3634 199.889 36.2116C200.112 37.0396 200.445 37.7768 200.889 38.423C201.354 39.0693 201.939 39.5843 202.646 39.968C203.353 40.3517 204.211 40.5436 205.221 40.5436C206.413 40.5436 207.544 40.2911 208.614 39.7862C209.705 39.2813 210.684 38.6452 211.552 37.8777L211.734 37.9989Z" fill="#F16325"/>
<path d="M197.678 37.9989C197.355 38.6654 196.951 39.2713 196.466 39.8165C195.982 40.3416 195.436 40.796 194.83 41.1798C194.225 41.5433 193.578 41.826 192.892 42.028C192.205 42.2299 191.488 42.3309 190.741 42.3309C189.166 42.3309 187.823 41.9472 186.712 41.1798C185.621 40.4123 184.702 39.4126 183.955 38.1807C183.41 38.7866 182.804 39.3924 182.137 39.9983C181.491 40.584 180.794 41.1091 180.047 41.5736C179.32 42.0179 178.563 42.3814 177.775 42.6641C176.988 42.9469 176.2 43.0883 175.412 43.0883C174.463 43.0883 173.615 42.8964 172.868 42.5127C172.12 42.129 171.484 41.6241 170.959 40.998C170.434 40.3517 170.03 39.6247 169.747 38.8169C169.465 37.9888 169.323 37.1305 169.323 36.2419C169.323 34.909 169.616 33.566 170.202 32.2129C170.808 30.8597 171.595 29.6379 172.565 28.5473C173.554 27.4366 174.685 26.5379 175.958 25.8512C177.23 25.1646 178.553 24.8212 179.926 24.8212C180.33 24.8212 180.683 24.8616 180.986 24.9424V23.6701C180.986 23.0844 181.006 22.3069 181.047 21.3375C181.087 20.3681 181.168 19.2977 181.289 18.1264C181.41 16.9348 181.562 15.6928 181.744 14.4002C181.946 13.0875 182.198 11.795 182.501 10.5227C182.824 9.23014 183.198 8.0083 183.622 6.85714C184.046 5.68579 184.541 4.66591 185.106 3.79749C185.672 2.90888 186.318 2.20203 187.045 1.67695C187.772 1.15186 188.59 0.889313 189.499 0.889313C190.569 0.889313 191.438 1.20235 192.104 1.82841C192.77 2.45448 193.296 3.23202 193.679 4.16102C194.063 5.06982 194.315 6.03922 194.437 7.0692C194.578 8.09918 194.649 9.01809 194.649 9.82591C194.649 10.8761 194.548 12.0979 194.346 13.4914C194.144 14.8647 193.861 16.3289 193.498 17.884C193.134 19.4189 192.7 20.9941 192.195 22.6098C191.69 24.2255 191.145 25.7805 190.559 27.275C189.973 28.7695 189.337 30.163 188.651 31.4555C187.984 32.7278 187.308 33.8083 186.621 34.6969C186.883 35.4846 187.196 36.2116 187.56 36.8781C187.944 37.5445 188.388 38.1201 188.893 38.6048C189.398 39.0895 189.973 39.4732 190.62 39.756C191.266 40.0185 192.003 40.1498 192.831 40.1498C194.729 40.1498 196.285 39.3924 197.496 37.8778L197.678 37.9989ZM185.258 21.1254C185.258 21.8525 185.258 22.7007 185.258 23.6701C185.258 24.6193 185.278 25.6291 185.318 26.6994C185.379 27.7698 185.47 28.8705 185.591 30.0014C185.732 31.1122 185.934 32.1927 186.197 33.2428C187.045 31.607 187.823 29.8197 188.529 27.8809C189.236 25.9219 189.842 23.9225 190.347 21.8828C190.872 19.8228 191.276 17.7729 191.559 15.7332C191.841 13.6934 191.983 11.7647 191.983 9.94709C191.983 9.56337 191.963 9.00799 191.922 8.28094C191.882 7.5539 191.771 6.83695 191.589 6.1301C191.407 5.40305 191.135 4.77699 190.771 4.2519C190.408 3.70661 189.913 3.43397 189.287 3.43397C188.802 3.43397 188.368 3.66622 187.984 4.13073C187.6 4.57503 187.267 5.1809 186.984 5.94834C186.702 6.69558 186.459 7.5539 186.257 8.52329C186.076 9.49269 185.914 10.5025 185.773 11.5526C185.651 12.6028 185.55 13.6429 185.47 14.6729C185.409 15.7029 185.359 16.6622 185.318 17.5508C185.298 18.4192 185.278 19.1765 185.258 19.8228C185.258 20.4489 185.258 20.8831 185.258 21.1254ZM177.624 39.7863C178.775 39.7863 179.835 39.5641 180.805 39.1198C181.794 38.6755 182.693 38.0898 183.501 37.3628C183.117 36.6155 182.784 35.8178 182.501 34.9696C182.238 34.1012 182.006 33.2327 181.804 32.3643C181.622 31.4757 181.471 30.5871 181.35 29.6985C181.249 28.8099 181.168 27.9516 181.107 27.1235C180.865 26.861 180.562 26.6489 180.199 26.4874C179.835 26.3056 179.391 26.2147 178.866 26.2147C177.917 26.2147 177.068 26.4773 176.321 27.0024C175.594 27.5073 174.978 28.1535 174.473 28.9412C173.968 29.7086 173.585 30.5568 173.322 31.4858C173.059 32.3946 172.928 33.263 172.928 34.0911C172.928 34.8585 173.009 35.5956 173.171 36.3025C173.352 36.9891 173.635 37.595 174.019 38.1201C174.402 38.625 174.887 39.0289 175.473 39.3318C176.079 39.6348 176.796 39.7863 177.624 39.7863Z" fill="#F16325"/>
<path d="M171.111 37.999C170.727 38.726 170.313 39.4227 169.868 40.0892C169.444 40.7557 168.96 41.3413 168.414 41.8462C167.869 42.3511 167.253 42.755 166.566 43.058C165.88 43.3609 165.092 43.5124 164.204 43.5124C163.194 43.5124 162.325 43.2599 161.598 42.755C160.871 42.2703 160.245 41.6241 159.72 40.8162C159.215 39.9882 158.801 39.0491 158.478 37.999C158.175 36.9488 157.923 35.8784 157.721 34.7878C157.519 33.6973 157.367 32.6269 157.266 31.5767C157.165 30.5063 157.074 29.547 156.994 28.6988C156.61 29.0018 156.145 29.5874 155.6 30.4558C155.055 31.3041 154.5 32.3038 153.934 33.4549C153.369 34.6061 152.823 35.8582 152.298 37.2113C151.793 38.5644 151.379 39.8973 151.056 41.2101C150.996 41.4928 150.895 41.7856 150.753 42.0886C150.632 42.3915 150.47 42.6642 150.269 42.9065C150.087 43.1691 149.865 43.3811 149.602 43.5427C149.34 43.7244 149.047 43.8153 148.724 43.8153C148.198 43.8153 147.815 43.6336 147.572 43.27C147.35 42.9065 147.189 42.4925 147.088 42.028C146.502 39.4631 146.088 37.0094 145.846 34.6667C145.624 32.324 145.512 29.9812 145.512 27.6385C145.512 27.0731 145.603 26.5884 145.785 26.1845C145.987 25.7603 146.25 25.417 146.573 25.1545C146.896 24.8717 147.28 24.6698 147.724 24.5486C148.168 24.4072 148.633 24.3365 149.117 24.3365C149.178 24.3365 149.269 24.3365 149.39 24.3365C149.531 24.3365 149.663 24.3567 149.784 24.3971C149.905 24.4173 150.006 24.4577 150.087 24.5183C150.168 24.5789 150.198 24.6597 150.178 24.7607C149.653 27.4063 149.4 30.1024 149.42 32.849C149.441 35.5755 149.582 38.2009 149.844 40.7254C150.067 39.7156 150.39 38.5745 150.814 37.3022C151.258 36.0097 151.763 34.7171 152.329 33.4246C152.914 32.1119 153.54 30.8699 154.207 29.6985C154.893 28.507 155.59 27.5073 156.297 26.6994C156.64 26.3157 156.984 25.9926 157.327 25.7301C157.69 25.4473 158.135 25.3059 158.66 25.3059C158.963 25.3059 159.215 25.3665 159.417 25.4877C159.619 25.6089 159.781 25.7603 159.902 25.9421C160.043 26.1239 160.144 26.3359 160.205 26.5783C160.286 26.8004 160.346 27.0226 160.387 27.2447C160.488 27.8304 160.589 28.5877 160.69 29.5167C160.791 30.4458 160.912 31.4353 161.053 32.4855C161.215 33.5357 161.406 34.596 161.629 35.6663C161.851 36.7165 162.134 37.6758 162.477 38.5442C162.82 39.3925 163.234 40.0892 163.719 40.6345C164.204 41.1798 164.779 41.4524 165.446 41.4524C165.991 41.4524 166.516 41.3514 167.021 41.1495C167.546 40.9273 168.041 40.6547 168.505 40.3316C168.97 39.9882 169.404 39.6045 169.808 39.1804C170.212 38.7361 170.575 38.3019 170.898 37.8778L171.111 37.999Z" fill="#F16325"/>
<path d="M134.53 19.2526C134.956 19.1144 135.423 18.919 135.887 18.6697C136.121 18.545 136.351 18.4068 136.578 18.2552C136.808 18.107 137.027 17.9385 137.247 17.7734C137.456 17.5982 137.673 17.4229 137.864 17.2343C138.063 17.0523 138.244 16.8535 138.419 16.6581C138.761 16.2672 139.047 15.8595 139.266 15.4821C139.486 15.1047 139.639 14.7543 139.73 14.4915C139.744 14.451 139.758 14.414 139.768 14.3769C140.668 13.3458 141.31 12.0957 141.54 10.7816C141.592 10.4851 141.115 10.4447 141.062 10.7378C140.846 11.9778 140.229 13.147 139.371 14.1107C139.088 14.1511 138.719 14.2286 138.307 14.3601C137.882 14.4982 137.414 14.6903 136.951 14.943C136.721 15.071 136.483 15.2024 136.26 15.3574C136.03 15.5057 135.814 15.6742 135.594 15.8426C135.385 16.0212 135.172 16.1931 134.977 16.3851C134.778 16.5705 134.597 16.7659 134.426 16.9613C134.14 17.2882 133.899 17.6217 133.697 17.9419V14.6431C133.938 14.5993 134.224 14.5285 134.527 14.4308C134.952 14.2927 135.42 14.0972 135.884 13.8479C136.117 13.7232 136.347 13.5851 136.574 13.4334C136.804 13.2852 137.024 13.1167 137.244 12.9516C137.453 12.7764 137.669 12.6012 137.861 12.4125C138.06 12.2305 138.241 12.0317 138.415 11.8363C138.757 11.4454 139.043 11.0377 139.263 10.6603C139.482 10.2829 139.636 9.9325 139.727 9.66968C139.741 9.62925 139.754 9.59218 139.765 9.55512C140.665 8.52404 141.306 7.27395 141.536 5.95984C141.589 5.66332 141.111 5.62289 141.059 5.91603C140.843 7.15602 140.225 8.32524 139.367 9.28893C139.085 9.32936 138.715 9.40686 138.304 9.53827C137.878 9.67642 137.411 9.86848 136.947 10.1212C136.717 10.2459 136.48 10.3806 136.257 10.5356C136.027 10.6839 135.81 10.8524 135.591 11.0209C135.381 11.1994 135.169 11.3713 134.973 11.5634C134.775 11.7487 134.593 11.9441 134.422 12.1395C134.136 12.4664 133.896 12.8 133.694 13.1201V10.229C133.704 10.2054 133.711 10.1852 133.721 10.165C133.882 9.76066 134.025 9.28893 134.119 8.7835C134.168 8.53078 134.206 8.27133 134.227 8.00514C134.255 7.73895 134.262 7.46938 134.269 7.19982C134.262 6.93026 134.258 6.6607 134.231 6.39451C134.213 6.12831 134.168 5.86886 134.122 5.61615C134.028 5.11072 133.885 4.63899 133.725 4.23464C133.565 3.8303 133.383 3.49335 133.233 3.25748C133.226 3.24738 133.223 3.24064 133.216 3.23053V0.224915C133.216 -0.0749718 132.738 -0.0749718 132.738 0.224915V3.23727C132.738 3.23727 132.728 3.25411 132.721 3.26422C132.571 3.50009 132.389 3.83704 132.229 4.24138C132.068 4.64573 131.925 5.11746 131.831 5.62289C131.786 5.8756 131.744 6.13505 131.723 6.40125C131.695 6.66744 131.692 6.937 131.685 7.20656C131.692 7.47612 131.695 7.74568 131.723 8.01188C131.744 8.27807 131.782 8.53752 131.831 8.79024C131.925 9.29566 132.068 9.7674 132.229 10.1717C132.239 10.1953 132.246 10.2155 132.257 10.2358V13.1268C132.055 12.8067 131.814 12.4731 131.528 12.1463C131.357 11.9508 131.172 11.7554 130.977 11.5701C130.785 11.378 130.572 11.2062 130.36 11.0276C130.14 10.8625 129.924 10.6906 129.694 10.5424C129.47 10.3874 129.233 10.2526 129.003 10.1279C128.539 9.87522 128.072 9.67979 127.647 9.54501C127.235 9.41023 126.862 9.33273 126.583 9.29566C125.725 8.32861 125.108 7.15939 124.892 5.92277C124.839 5.62963 124.362 5.67006 124.414 5.96658C124.644 7.28069 125.286 8.53078 126.185 9.56186C126.199 9.59892 126.21 9.63599 126.224 9.67642C126.318 9.93924 126.468 10.2897 126.688 10.6671C126.907 11.0444 127.193 11.4522 127.535 11.843C127.706 12.0385 127.887 12.2373 128.086 12.4192C128.278 12.6113 128.494 12.7831 128.703 12.9583C128.923 13.1234 129.139 13.2953 129.369 13.4402C129.596 13.5918 129.826 13.73 130.06 13.8546C130.524 14.1073 130.991 14.2994 131.416 14.4376C131.723 14.5386 132.006 14.606 132.246 14.6498V17.9486C132.044 17.6285 131.803 17.2949 131.517 16.9681C131.347 16.7726 131.162 16.5772 130.966 16.3919C130.775 16.1998 130.562 16.028 130.349 15.8494C130.13 15.6843 129.913 15.5124 129.683 15.3642C129.46 15.2092 129.223 15.0744 128.993 14.9497C128.529 14.697 128.062 14.5016 127.636 14.3668C127.225 14.232 126.851 14.1545 126.572 14.1174C125.715 13.1504 125.097 11.9812 124.881 10.7446C124.829 10.4514 124.351 10.4918 124.403 10.7884C124.634 12.1025 125.275 13.3526 126.175 14.3836C126.189 14.4207 126.199 14.4578 126.213 14.4982C126.307 14.761 126.457 15.1115 126.677 15.4888C126.897 15.8662 127.183 16.2739 127.524 16.6648C127.695 16.8602 127.877 17.059 128.075 17.241C128.267 17.4331 128.484 17.6049 128.693 17.7801C128.912 17.9452 129.129 18.1171 129.359 18.262C129.585 18.4136 129.816 18.5517 130.049 18.6764C130.513 18.9291 130.98 19.1212 131.406 19.2593C131.713 19.3604 131.995 19.4278 132.236 19.4716V22.7704C132.034 22.4503 131.793 22.1167 131.507 21.7898C131.336 21.5944 131.151 21.399 130.956 21.2137C130.764 21.0216 130.551 20.8497 130.339 20.6712C130.119 20.5061 129.903 20.3342 129.673 20.186C129.449 20.031 129.212 19.8962 128.982 19.7715C128.518 19.5188 128.051 19.3234 127.626 19.1886C127.214 19.0538 126.841 18.9797 126.562 18.9392C125.704 17.9722 125.09 16.803 124.871 15.5663C124.818 15.2732 124.341 15.3136 124.393 15.6101C124.623 16.9243 125.265 18.1744 126.164 19.2054C126.178 19.2425 126.189 19.2796 126.203 19.32C126.297 19.5828 126.447 19.9332 126.667 20.3106C126.886 20.688 127.172 21.0957 127.514 21.4866C127.685 21.682 127.866 21.8808 128.065 22.0628C128.257 22.2548 128.473 22.4267 128.682 22.6019C128.902 22.767 129.118 22.9355 129.348 23.0837C129.575 23.2354 129.805 23.3735 130.039 23.4982C130.503 23.7509 130.97 23.943 131.395 24.0811C131.702 24.1822 131.985 24.2496 132.225 24.2934V27.5922C132.023 27.2721 131.782 26.9385 131.497 26.6116C131.326 26.4162 131.141 26.2208 130.946 26.0354C130.754 25.8434 130.541 25.6715 130.328 25.4929C130.109 25.3278 129.892 25.156 129.662 25.0077C129.439 24.8527 129.202 24.718 128.972 24.5933C128.508 24.3406 128.041 24.1451 127.615 24.0104C127.204 23.8756 126.831 23.7981 126.552 23.761C125.694 22.794 125.08 21.6247 124.86 20.3881C124.808 20.095 124.33 20.1354 124.382 20.4319C124.613 21.746 125.254 22.9961 126.154 24.0272C126.168 24.0643 126.178 24.1013 126.192 24.1418C126.286 24.4046 126.436 24.755 126.656 25.1324C126.876 25.5098 127.162 25.9175 127.504 26.3084C127.674 26.5038 127.856 26.7026 128.055 26.8846C128.246 27.0766 128.463 27.2485 128.672 27.4237C128.892 27.5888 129.108 27.7573 129.338 27.9055C129.565 28.0572 129.795 28.1953 130.028 28.32C130.492 28.5727 130.959 28.7648 131.385 28.9029C131.692 29.004 131.974 29.0714 132.215 29.1152V32.4139C132.013 32.0938 131.772 31.7603 131.486 31.4334C131.315 31.238 131.13 31.0425 130.935 30.8572C130.743 30.6652 130.531 30.4933 130.318 30.3147C130.098 30.1496 129.882 29.9778 129.652 29.8295C129.429 29.6745 129.191 29.5397 128.961 29.4151C128.497 29.1624 128.03 28.9669 127.605 28.8321C127.193 28.6974 126.82 28.6199 126.541 28.5828C125.683 27.6157 125.066 26.4465 124.85 25.2099C124.797 24.9168 124.32 24.9572 124.372 25.2537C124.602 26.5678 125.244 27.8179 126.144 28.849C126.157 28.8861 126.168 28.9231 126.182 28.9636C126.276 29.2264 126.426 29.5768 126.646 29.9542C126.865 30.3316 127.151 30.7393 127.493 31.1302C127.664 31.3256 127.845 31.5244 128.044 31.7063C128.236 31.8984 128.452 32.0703 128.661 32.2455C128.881 32.4106 129.097 32.5824 129.327 32.7273C129.554 32.8789 129.784 33.0171 130.018 33.1418C130.482 33.3945 130.949 33.5865 131.374 33.7247C131.681 33.8258 131.964 33.8932 132.204 33.937V37.2357C132.002 36.9156 131.762 36.582 131.476 36.2552C131.305 36.0598 131.12 35.8643 130.925 35.679C130.733 35.4869 130.52 35.3151 130.307 35.1365C130.088 34.9714 129.871 34.7996 129.641 34.6513C129.418 34.4963 129.181 34.3615 128.951 34.2369C128.487 33.9841 128.02 33.7887 127.594 33.6539C127.183 33.5191 126.81 33.4416 126.531 33.4046C125.673 32.4375 125.055 31.2683 124.839 30.0317C124.787 29.7385 124.309 29.779 124.362 30.0755C124.592 31.3896 125.233 32.6397 126.133 33.6708C126.147 33.7078 126.157 33.7449 126.171 33.7853C126.266 34.0482 126.416 34.3986 126.635 34.776C126.855 35.1534 127.141 35.5611 127.483 35.9519C127.654 36.1474 127.835 36.3462 128.034 36.5281C128.225 36.7202 128.442 36.892 128.651 37.0672C128.871 37.2324 129.087 37.4042 129.317 37.5491C129.544 37.7007 129.774 37.8389 130.007 37.9635C130.471 38.2163 130.939 38.4083 131.364 38.5465C131.671 38.6476 131.953 38.7149 132.194 38.7587V42.0575C131.992 41.7374 131.751 41.4038 131.465 41.077C131.294 40.8815 131.109 40.6861 130.914 40.5008C130.722 40.3087 130.51 40.1369 130.297 39.9583C130.077 39.7932 129.861 39.6213 129.631 39.4731C129.408 39.3181 129.171 39.1833 128.94 39.0586C128.477 38.8059 128.009 38.6105 127.584 38.4757C127.172 38.3409 126.799 38.2668 126.52 38.2264C125.662 37.2593 125.049 36.0901 124.829 34.8535C124.776 34.5603 124.299 34.6008 124.351 34.8973C124.581 36.2114 125.223 37.4615 126.123 38.4926C126.137 38.5296 126.147 38.5667 126.161 38.6071C126.255 38.8699 126.405 39.2204 126.625 39.5978C126.844 39.9751 127.13 40.3829 127.472 40.7737C127.643 40.9692 127.824 41.168 128.023 41.3499C128.215 41.542 128.431 41.7138 128.64 41.889C128.86 42.0541 129.076 42.2226 129.307 42.3709C129.533 42.5225 129.763 42.6607 129.997 42.7853C130.461 43.038 130.928 43.2301 131.354 43.3683C131.66 43.4693 131.943 43.5367 132.184 43.5805V46.9501C132.184 47.8463 133.62 47.8463 133.62 46.9501V43.5805C133.861 43.5367 134.147 43.466 134.45 43.3683C134.876 43.2301 135.343 43.0347 135.807 42.7853C136.04 42.6607 136.271 42.5225 136.497 42.3709C136.727 42.2226 136.947 42.0541 137.167 41.889C137.376 41.7138 137.592 41.5386 137.784 41.3499C137.983 41.168 138.164 40.9692 138.339 40.7737C138.68 40.3829 138.966 39.9751 139.186 39.5978C139.406 39.2204 139.559 38.8699 139.65 38.6071C139.664 38.5667 139.678 38.5296 139.688 38.4926C140.588 37.4615 141.23 36.2114 141.46 34.8973C141.512 34.6008 141.034 34.5603 140.982 34.8535C140.766 36.0935 140.149 37.2627 139.291 38.2264C139.008 38.2668 138.639 38.3443 138.227 38.4757C137.802 38.6139 137.334 38.8093 136.87 39.0586C136.64 39.1867 136.403 39.3181 136.18 39.4731C135.95 39.6213 135.734 39.7898 135.514 39.9583C135.305 40.1335 135.092 40.3087 134.897 40.5008C134.698 40.6861 134.517 40.8815 134.346 41.077C134.06 41.4038 133.819 41.7374 133.617 42.0575V38.7587C133.857 38.7149 134.143 38.6442 134.447 38.5465C134.872 38.4083 135.34 38.2129 135.803 37.9635C136.037 37.8389 136.267 37.7007 136.494 37.5491C136.724 37.4008 136.944 37.2324 137.163 37.0672C137.373 36.892 137.589 36.7168 137.781 36.5281C137.979 36.3462 138.161 36.1474 138.335 35.9519C138.677 35.5611 138.963 35.1534 139.183 34.776C139.402 34.3986 139.556 34.0482 139.646 33.7853C139.66 33.7449 139.674 33.7078 139.685 33.6708C140.584 32.6397 141.226 31.3896 141.456 30.0755C141.509 29.779 141.031 29.7385 140.979 30.0317C140.762 31.2717 140.145 32.4409 139.287 33.4046C139.005 33.445 138.635 33.5225 138.224 33.6539C137.798 33.7921 137.331 33.9841 136.867 34.2369C136.637 34.3649 136.4 34.4963 136.177 34.6513C135.946 34.7996 135.73 34.968 135.51 35.1365C135.301 35.3151 135.088 35.4869 134.893 35.679C134.694 35.8643 134.513 36.0598 134.342 36.2552C134.056 36.582 133.816 36.9156 133.613 37.2357V33.937C133.854 33.8932 134.14 33.8224 134.443 33.7247C134.869 33.5865 135.336 33.3911 135.8 33.1418C136.034 33.0171 136.264 32.8789 136.49 32.7273C136.721 32.579 136.94 32.4106 137.16 32.2455C137.369 32.0703 137.585 31.895 137.777 31.7063C137.976 31.5244 138.157 31.3256 138.332 31.1302C138.673 30.7393 138.959 30.3316 139.179 29.9542C139.399 29.5768 139.552 29.2264 139.643 28.9636C139.657 28.9231 139.671 28.8861 139.681 28.849C140.581 27.8179 141.223 26.5678 141.453 25.2537C141.505 24.9572 141.027 24.9168 140.975 25.2099C140.759 26.4499 140.142 27.6191 139.284 28.5828C139.001 28.6232 138.632 28.7007 138.22 28.8321C137.795 28.9703 137.327 29.1624 136.864 29.4151C136.633 29.5397 136.396 29.6745 136.173 29.8295C135.943 29.9778 135.727 30.1463 135.507 30.3147C135.298 30.4933 135.085 30.6652 134.89 30.8572C134.691 31.0425 134.51 31.238 134.339 31.4334C134.053 31.7603 133.812 32.0938 133.61 32.4139V29.1152C133.85 29.0714 134.136 29.0006 134.44 28.9029C134.865 28.7648 135.333 28.5693 135.796 28.32C136.03 28.1953 136.26 28.0572 136.487 27.9055C136.717 27.7573 136.937 27.5888 137.156 27.4237C137.366 27.2485 137.582 27.0733 137.774 26.8846C137.972 26.7026 138.154 26.5038 138.328 26.3084C138.67 25.9175 138.956 25.5098 139.176 25.1324C139.395 24.755 139.549 24.4046 139.639 24.1418C139.653 24.1013 139.667 24.0643 139.678 24.0272C140.577 22.9961 141.219 21.746 141.449 20.4319C141.502 20.1354 141.024 20.095 140.972 20.3881C140.755 21.6281 140.138 22.7973 139.28 23.761C138.998 23.8014 138.628 23.8789 138.217 24.0104C137.791 24.1485 137.324 24.3439 136.86 24.5933C136.63 24.7213 136.393 24.8527 136.17 25.0077C135.939 25.156 135.723 25.3245 135.503 25.4929C135.294 25.6715 135.081 25.8434 134.886 26.0354C134.687 26.2208 134.506 26.4162 134.335 26.6116C134.049 26.9385 133.809 27.2721 133.606 27.5922V24.2934C133.847 24.2496 134.133 24.1788 134.436 24.0811C134.862 23.943 135.329 23.7475 135.793 23.4982C136.027 23.3735 136.257 23.2354 136.483 23.0837C136.714 22.9355 136.933 22.767 137.153 22.6019C137.362 22.4267 137.578 22.2515 137.77 22.0628C137.969 21.8808 138.15 21.682 138.325 21.4866C138.666 21.0957 138.952 20.688 139.172 20.3106C139.392 19.9332 139.545 19.5828 139.636 19.32C139.65 19.2796 139.664 19.2425 139.674 19.2054C140.574 18.1744 141.216 16.9243 141.446 15.6101C141.498 15.3136 141.02 15.2732 140.968 15.5663C140.752 16.8063 140.135 17.9755 139.277 18.9392C138.994 18.9797 138.625 19.0572 138.213 19.1886C137.788 19.3267 137.32 19.5222 136.857 19.7715C136.626 19.8995 136.389 20.031 136.166 20.186C135.936 20.3342 135.72 20.5027 135.5 20.6712C135.291 20.8497 135.078 21.0216 134.883 21.2137C134.684 21.399 134.503 21.5944 134.332 21.7898C134.046 22.1167 133.805 22.4503 133.603 22.7704V19.4716C133.843 19.4278 134.129 19.3571 134.433 19.2593L134.53 19.2526Z" fill="#F16325"/>
</svg>
