<svg width="1157" height="160" viewBox="0 0 1157 160" fill="none" xmlns="http://www.w3.org/2000/svg">
<path fill-rule="evenodd" clip-rule="evenodd" d="M4.7716e-05 0H1156V38.0021C1156.03 38.0007 1156.04 38 1156.04 38L1156 40.4563V101.899H1154.9L1154.54 122.074C1154.54 122.074 1053.72 92.229 998.044 113.724C972.747 123.491 964.02 127.182 940.558 138.889C887.8 165.215 838.014 147.524 784.335 128.449C752.361 117.087 719.005 105.234 682.816 101.899H643.881C643.203 101.965 642.525 102.034 641.845 102.107C600.408 106.539 571.429 118.438 542.53 130.303C513.16 142.362 483.873 154.387 441.676 158.506C384.029 164.134 340.512 152.858 296.185 141.373C255.861 130.924 214.866 120.302 161.954 122.074C137.076 122.907 109.327 126.723 86.6563 129.84C67.0916 132.53 51.3093 134.7 44.4187 133.985C29.5438 132.44 5.46023 121.448 1.04373 102.5C0.997636 102.302 0.953062 102.102 0.910013 101.899H4.7716e-05V92.2383C-1.59045e-05 92.1867 -1.59061e-05 92.1352 4.7716e-05 92.0835V0Z" fill="#067302"/>
</svg>
