<svg width="26" height="27" viewBox="0 0 26 27" fill="none" xmlns="http://www.w3.org/2000/svg">
<path d="M13.1232 0.44751C6.01218 0.44751 0.246338 6.21336 0.246338 13.3244C0.246338 20.4354 6.01218 26.2012 13.1232 26.2012C20.2342 26.2012 26.0001 20.4354 26.0001 13.3244C26.0001 6.21336 20.2342 0.44751 13.1232 0.44751ZM19.3116 10.154C19.3202 10.2891 19.3202 10.43 19.3202 10.5679C19.3202 14.7874 16.1067 19.6478 10.2345 19.6478C8.42372 19.6478 6.74513 19.1218 5.33098 18.2164C5.58966 18.2452 5.83685 18.2567 6.10129 18.2567C7.59592 18.2567 8.96984 17.7508 10.0649 16.8943C8.66229 16.8655 7.48383 15.9457 7.08142 14.681C7.57293 14.7529 8.01557 14.7529 8.52145 14.6236C7.79921 14.4768 7.15005 14.0846 6.68424 13.5135C6.21844 12.9423 5.96472 12.2276 5.9662 11.4906V11.4503C6.38872 11.6889 6.88597 11.8355 7.40622 11.8556C6.96887 11.5641 6.61021 11.1693 6.36202 10.706C6.11383 10.2427 5.9838 9.72533 5.98344 9.19975C5.98344 8.60477 6.13865 8.06153 6.41746 7.59015C7.21911 8.577 8.21945 9.38412 9.35346 9.95905C10.4875 10.534 11.7298 10.8638 12.9996 10.9272C12.5483 8.75711 14.1694 7.00091 16.1182 7.00091C17.038 7.00091 17.8658 7.38607 18.4493 8.00692C19.1707 7.87183 19.8606 7.60164 20.4757 7.23948C20.2371 7.97818 19.737 8.6019 19.073 8.99568C19.7168 8.92669 20.3377 8.74849 20.9126 8.49842C20.4785 9.13652 19.9353 9.70276 19.3116 10.154Z" fill="#474747"/>
</svg>
