<svg width="26" height="27" viewBox="0 0 26 27" fill="none" xmlns="http://www.w3.org/2000/svg">
<path d="M15.027 13.1004L12.0144 11.6946C11.7515 11.5726 11.5355 11.7094 11.5355 12.0005V14.6483C11.5355 14.9393 11.7515 15.0762 12.0144 14.9541L15.0257 13.5484C15.2899 13.425 15.2899 13.2238 15.027 13.1004ZM12.8769 0.44751C5.76508 0.44751 0 6.21259 0 13.3244C0 20.4362 5.76508 26.2012 12.8769 26.2012C19.9886 26.2012 25.7537 20.4362 25.7537 13.3244C25.7537 6.21259 19.9886 0.44751 12.8769 0.44751ZM12.8769 18.5556C6.28552 18.5556 6.17016 17.9614 6.17016 13.3244C6.17016 8.68736 6.28552 8.09315 12.8769 8.09315C19.4682 8.09315 19.5836 8.68736 19.5836 13.3244C19.5836 17.9614 19.4682 18.5556 12.8769 18.5556Z" fill="#474747"/>
</svg>
